<?xml version="1.0" encoding="utf-8"?>
<!-- Generator: Adobe Illustrator 21.0.1, SVG Export Plug-In . SVG Version: 6.00 Build 0)  -->
<svg version="1.1" id="Layer_2" xmlns="http://www.w3.org/2000/svg" xmlns:xlink="http://www.w3.org/1999/xlink" x="0px" y="0px"
	 viewBox="0 0 150 150" style="enable-background:new 0 0 150 150;" xml:space="preserve">
<style type="text/css">
	.st0{fill:#999999;}
	.st1{fill:#1A1A1A;}
	.st2{fill:#FFFFFF;}
</style>
<path class="st0" d="M12.8,137.9c0,0-7.8-11.7-7.8-15.6c7.8,0,23.5-3.9,27.4-7.8c3.9-3.9,3.9-7.8,3.9-11.7c0-20.5,0-44.9,0-62.6
	c0-15.6,0-19.6-3.9-23.5s-15.6-3.9-19.6-3.9C12.8,8.8,20.6,1,20.6,1h70.4c0,0-7.8,7.8-7.8,11.7c-7.8,0-15.6,0-19.6,3.9
	s-7.8,7.8-7.8,23.5c0,18.6,0,44.5,0,62.6c0,2,0,7.8,3.9,11.7c3.9,3.9,7.8,3.9,11.7,3.9c3.9,0,11.7,0,23.5,0
	c19.6,0,23.5-27.4,23.5-27.4l19.6-7.8l-27.4,54.8H12.8z"/>
<g>
	<path class="st1" d="M26.1,144.8l-0.3-0.3c-0.8-0.8-8.1-8.2-8.1-12.4v-1h1c7.7,0,23.1-4,26.7-7.5c3.6-3.6,3.6-7.2,3.6-11V49.9
		c0-15.5,0-19.1-3.6-22.8c-2.4-2.4-8.7-3.6-18.9-3.6h-1v-1c0-4.2,10.1-11.2,12.2-12.6l0.3-0.2h74l-2.7,1.8
		c-4.7,3.1-11.3,8.6-11.3,10.9v1h-1c-7.5,0-15.2,0-18.9,3.6c-3.9,3.9-7.5,7.5-7.5,22.8v62.6c0,1.8,0,7.4,3.6,11
		c3.6,3.6,7.2,3.6,11,3.6h15.6c18.5,0,22.4-26.3,22.5-26.5l0.1-0.6l22.6-9l-27.7,53.8H26.1z"/>
	<path class="st2" d="M108.7,10.8L108.7,10.8 M108.7,10.8c0,0-11.7,7.8-11.7,11.7c-7.8,0-15.6,0-19.6,3.9c-3.9,3.9-7.8,7.8-7.8,23.5
		c0,18.6,0,44.5,0,62.6c0,2,0,7.8,3.9,11.7c3.9,3.9,7.8,3.9,11.7,3.9c3.9,0,3.9,0,15.6,0c19.6,0,23.5-27.4,23.5-27.4l19.6-7.8
		l-26.2,50.9H26.5c0,0-7.8-7.8-7.8-11.7c7.8,0,23.5-3.9,27.4-7.8c3.9-3.9,3.9-7.8,3.9-11.7c0-20.5,0-44.9,0-62.6
		c0-15.6,0-19.6-3.9-23.5c-3.9-3.9-15.6-3.9-19.6-3.9c0-3.9,11.7-11.7,11.7-11.7H108.7 M115.3,8.8h-6.6H38.2h-0.6l-0.5,0.3
		c-3.8,2.5-12.6,8.9-12.6,13.4v2h2c12.2,0,16.6,1.8,18.1,3.3c3.2,3.2,3.3,6.3,3.3,22.1v62.6c0,3.8,0,7-3.3,10.3
		c-2.9,2.9-17.1,7.2-26,7.2h-2v2c0,4.5,7,11.7,8.4,13.1l0.6,0.6h0.8h91.2h1.2l0.6-1.1l26.2-50.9l2.5-4.8l-5,2l-19.6,7.8l-1.1,0.4
		l-0.2,1.1c0,0.3-3.9,25.7-21.5,25.7H85.2c-3.8,0-7,0-10.3-3.3s-3.3-8.4-3.3-10.3V49.9c0-14.8,3.5-18.3,7.2-22.1
		c3.3-3.3,10.9-3.3,18.1-3.3h2v-2c0-1.5,5.2-6.3,10.8-10.1L115.3,8.8L115.3,8.8z M108.7,8.8L108.7,8.8L108.7,8.8L108.7,8.8z
		 M108.7,12.8L108.7,12.8L108.7,12.8L108.7,12.8z"/>
</g>
</svg>
